<svg width="24" height="24" viewBox="0 0 24 24" fill="none" xmlns="http://www.w3.org/2000/svg">
<path id="Vector" d="M7.63636 0H3.27273C1.46455 0 0 1.46455 0 3.27273V7.63636C0 9.44455 1.46455 10.9091 3.27273 10.9091H7.63636C9.44455 10.9091 10.9091 9.44455 10.9091 7.63636V3.27273C10.9091 1.46455 9.44455 0 7.63636 0ZM8.72727 7.63636C8.72727 8.23909 8.23909 8.72727 7.63636 8.72727H3.27273C2.67 8.72727 2.18182 8.23909 2.18182 7.63636V3.27273C2.18182 2.67 2.67 2.18182 3.27273 2.18182H7.63636C8.23909 2.18182 8.72727 2.67 8.72727 3.27273V7.63636ZM20.7273 0H16.3636C14.5555 0 13.0909 1.46455 13.0909 3.27273V20.7273C13.0909 22.5355 14.5555 24 16.3636 24H20.7273C22.5355 24 24 22.5355 24 20.7273V3.27273C24 1.46455 22.5355 0 20.7273 0ZM21.8182 20.7273C21.8182 21.33 21.33 21.8182 20.7273 21.8182H16.3636C15.7609 21.8182 15.2727 21.33 15.2727 20.7273V3.27273C15.2727 2.67 15.7609 2.18182 16.3636 2.18182H20.7273C21.33 2.18182 21.8182 2.67 21.8182 3.27273V20.7273ZM7.63636 13.0909H3.27273C1.46455 13.0909 0 14.5555 0 16.3636V20.7273C0 22.5355 1.46455 24 3.27273 24H7.63636C9.44455 24 10.9091 22.5355 10.9091 20.7273V16.3636C10.9091 14.5555 9.44455 13.0909 7.63636 13.0909ZM8.72727 20.7273C8.72727 21.33 8.23909 21.8182 7.63636 21.8182H3.27273C2.67 21.8182 2.18182 21.33 2.18182 20.7273V16.3636C2.18182 15.7609 2.67 15.2727 3.27273 15.2727H7.63636C8.23909 15.2727 8.72727 15.7609 8.72727 16.3636V20.7273Z" fill="white"/>
</svg>
